<?xml version="1.0" standalone="no"?>
<!DOCTYPE svg PUBLIC "-//W3C//DTD SVG 20010904//EN"
 "http://www.w3.org/TR/2001/REC-SVG-20010904/DTD/svg10.dtd">
<svg version="1.0" xmlns="http://www.w3.org/2000/svg"
 width="512.000000pt" height="512.000000pt" viewBox="0 0 512.000000 512.000000"
 preserveAspectRatio="xMidYMid meet">
<metadata>
Created by potrace 1.14, written by Peter Selinger 2001-2017
</metadata>
<g transform="translate(0.000000,512.000000) scale(0.100000,-0.100000)"
fill="#000000" stroke="none">
<path d="M1925 5109 c-136 -16 -386 -70 -457 -98 -12 -5 -61 -24 -108 -42
-276 -107 -518 -266 -735 -483 -126 -126 -225 -247 -296 -363 -23 -38 -49 -79
-58 -93 -75 -114 -200 -448 -227 -610 -3 -14 -7 -32 -9 -40 -2 -8 -7 -37 -11
-65 -3 -27 -8 -59 -11 -70 -12 -49 -9 -407 4 -505 28 -222 101 -465 193 -652
16 -32 27 -58 24 -58 -3 0 0 -6 6 -12 6 -7 33 -51 61 -97 49 -85 91 -144 141
-204 15 -18 28 -36 28 -42 1 -5 14 -21 30 -35 17 -13 30 -30 30 -36 0 -7 9
-16 20 -19 11 -3 20 -10 20 -13 0 -10 86 -97 150 -152 28 -25 57 -50 63 -55
93 -81 343 -234 489 -298 176 -77 398 -141 563 -163 28 -3 59 -8 70 -11 50
-11 389 -9 495 3 270 33 538 115 766 234 43 23 139 82 213 132 l134 89 111
-110 c61 -60 181 -179 267 -263 86 -84 337 -331 558 -548 220 -217 413 -401
428 -409 128 -67 278 57 234 192 -12 34 -183 209 -661 677 -69 68 -254 250
-412 406 l-287 283 47 58 c25 32 52 63 58 68 16 14 144 201 144 211 0 4 6 15
14 23 35 41 134 251 177 376 84 249 114 437 113 715 -1 239 -42 473 -119 675
-15 39 -30 79 -33 90 -10 35 -136 278 -171 330 -155 228 -339 424 -535 569
-290 214 -624 350 -996 407 -92 14 -429 19 -525 8z m-560 -796 c69 -22 204
-85 276 -129 39 -23 68 -34 82 -31 165 39 265 50 427 51 143 0 202 -6 352 -35
l107 -21 43 30 c114 78 298 153 381 155 l60 2 19 -55 c44 -130 51 -281 15
-386 -12 -38 -12 -40 26 -89 53 -68 106 -175 117 -237 1 -4 7 -29 14 -55 13
-49 14 -263 2 -338 -12 -70 -47 -199 -58 -212 -6 -7 -7 -13 -4 -13 4 0 -10
-33 -31 -72 -46 -89 -153 -200 -238 -249 -122 -71 -270 -121 -395 -134 -78 -9
-89 -13 -69 -28 23 -18 65 -87 85 -143 15 -43 18 -90 19 -372 l2 -323 -34 -29
c-19 -17 -37 -30 -41 -31 -4 0 -15 -2 -25 -4 -76 -14 -416 -23 -436 -11 -6 4
-11 3 -11 -1 0 -5 -21 -8 -47 -7 -27 2 -77 4 -113 5 -43 1 -79 9 -106 23 -39
20 -43 26 -60 91 -12 48 -18 110 -19 195 l-2 125 -59 -4 c-53 -4 -147 -5 -213
-2 -21 1 -22 3 -10 19 11 14 10 13 -9 -2 -13 -11 -23 -14 -23 -8 -3 27 -4 31
-13 39 -5 5 -6 3 -2 -4 4 -8 2 -13 -6 -13 -9 0 -9 -3 2 -10 12 -8 10 -10 -9
-10 -17 0 -22 4 -17 16 5 14 4 15 -9 4 -21 -17 -31 10 -15 42 11 22 11 22 -9
-2 -10 -13 -17 -28 -15 -32 3 -4 -3 -5 -12 -1 -11 4 -13 8 -6 11 7 2 12 9 12
14 0 6 -3 8 -7 5 -11 -11 -33 30 -26 49 4 12 3 15 -6 10 -6 -4 -23 0 -36 8
-14 9 -25 12 -25 6 0 -5 -5 -10 -12 -10 -6 0 -8 3 -5 7 4 3 1 13 -6 22 -11 14
-10 14 6 2 24 -19 21 -2 -4 25 -12 13 -28 20 -38 17 -13 -4 -13 -3 -2 5 11 8
10 12 -6 21 -11 5 -23 8 -26 4 -4 -3 -4 4 -2 16 2 14 -2 24 -11 28 -12 5 -13
7 -3 14 7 4 19 4 25 -2 7 -6 15 -4 24 5 10 13 8 15 -9 11 -13 -2 -25 3 -31 16
-7 11 -7 19 -1 19 5 0 11 -6 14 -12 3 -7 4 -3 4 9 -1 16 -5 20 -16 13 -9 -5
-24 -4 -36 2 -14 7 -13 4 5 -11 14 -11 21 -21 15 -21 -5 0 -3 -5 5 -11 10 -7
11 -9 2 -7 -8 2 -14 8 -14 13 0 6 -9 16 -19 23 -11 7 -19 19 -19 26 0 7 -13
27 -29 44 -16 16 -27 33 -24 36 4 3 -1 6 -10 6 -8 0 -17 3 -19 8 -2 4 -16 15
-33 24 -16 10 -29 22 -27 28 1 7 -2 9 -7 6 -5 -4 -19 4 -30 16 -22 23 -29 44
-11 33 5 -3 7 0 4 8 -3 9 3 16 15 20 90 23 263 -69 317 -168 10 -19 22 -35 26
-35 5 0 8 -6 8 -12 0 -20 77 -95 123 -122 23 -13 58 -28 77 -32 46 -10 154 -6
205 7 85 22 92 28 109 96 14 59 71 163 88 163 13 0 9 17 -4 17 -153 4 -394 87
-519 178 -175 129 -279 372 -283 665 -2 117 6 184 35 275 22 69 82 175 124
221 22 24 22 25 5 87 -25 90 -25 199 -1 293 31 120 32 123 50 127 27 6 93 -3
146 -20z m-218 -2165 c-3 -8 -6 -5 -6 6 -1 11 2 17 5 13 3 -3 4 -12 1 -19z
m70 -54 c-3 -3 -12 -4 -19 -1 -8 3 -5 6 6 6 11 1 17 -2 13 -5z m18 -14 c-3 -5
-12 -10 -18 -10 -7 0 -6 4 3 10 19 12 23 12 15 0z m19 -36 c5 -14 4 -15 -9 -4
-17 14 -19 20 -6 20 5 0 12 -7 15 -16z"/>
<path d="M933 2475 c0 -8 4 -12 9 -9 5 3 6 10 3 15 -9 13 -12 11 -12 -6z"/>
<path d="M966 2458 c3 -5 10 -6 15 -3 13 9 11 12 -6 12 -8 0 -12 -4 -9 -9z"/>
<path d="M995 2420 c3 -5 8 -10 11 -10 2 0 4 5 4 10 0 6 -5 10 -11 10 -5 0 -7
-4 -4 -10z"/>
<path d="M1035 2423 c3 -3 0 -11 -5 -18 -7 -8 -5 -12 4 -12 14 0 16 22 3 32
-4 3 -5 2 -2 -2z"/>
<path d="M1038 2373 c7 -3 16 -2 19 1 4 3 -2 6 -13 5 -11 0 -14 -3 -6 -6z"/>
<path d="M1076 2359 c3 -5 0 -9 -7 -9 -7 0 -9 -3 -6 -6 4 -4 13 -2 20 4 8 7
16 11 18 9 2 -1 3 0 1 2 -1 3 -9 6 -17 7 -8 1 -13 -2 -9 -7z"/>
<path d="M1213 2285 c0 -8 4 -12 9 -9 5 3 6 10 3 15 -9 13 -12 11 -12 -6z"/>
<path d="M1097 2259 c7 -9 11 -18 8 -21 -3 -3 10 -16 28 -28 19 -13 43 -36 53
-52 28 -44 46 -50 74 -26 l25 20 -29 -17 c-28 -17 -29 -17 -22 0 6 16 4 16
-11 4 -15 -12 -16 -12 -10 4 9 24 -9 58 -28 51 -10 -4 -13 0 -10 15 3 14 -1
18 -11 14 -10 -4 -12 0 -8 11 3 9 1 16 -6 16 -6 0 -8 5 -4 13 5 8 2 8 -9 -2
-14 -11 -20 -11 -34 0 -16 12 -17 12 -6 -2z m48 -19 c3 -5 -1 -10 -10 -10 -9
0 -13 5 -10 10 3 6 8 10 10 10 2 0 7 -4 10 -10z m20 -38 c-3 -3 -11 0 -18 7
-9 10 -8 11 6 5 10 -3 15 -9 12 -12z m30 -22 c-3 -5 -1 -10 4 -10 6 0 11 -5
11 -11 0 -8 -5 -8 -15 1 -13 11 -12 30 1 30 3 0 2 -4 -1 -10z"/>
<path d="M1216 2198 c3 -5 10 -6 15 -3 13 9 11 12 -6 12 -8 0 -12 -4 -9 -9z"/>
<path d="M1290 2140 c0 -5 5 -10 11 -10 5 0 7 5 4 10 -3 6 -8 10 -11 10 -2 0
-4 -4 -4 -10z"/>
<path d="M1270 2110 c0 -5 5 -10 10 -10 6 0 10 5 10 10 0 6 -4 10 -10 10 -5 0
-10 -4 -10 -10z"/>
<path d="M1265 2081 c-3 -6 3 -15 14 -20 15 -8 20 -7 25 5 8 21 8 24 -5 24 -5
0 -7 -4 -4 -10 3 -5 -1 -10 -10 -10 -9 0 -13 5 -10 10 3 6 4 10 1 10 -3 0 -7
-4 -11 -9z"/>
<path d="M1350 2056 c14 -18 13 -19 -5 -12 -16 6 -18 5 -7 -5 8 -9 15 -10 22
-3 8 8 5 15 -7 25 -17 13 -17 13 -3 -5z"/>
</g>
</svg>
